<?xml version="1.0" encoding="utf-8"?>
<!-- Generator: Adobe Illustrator 18.0.0, SVG Export Plug-In . SVG Version: 6.00 Build 0)  -->
<!DOCTYPE svg PUBLIC "-//W3C//DTD SVG 1.1//EN" "http://www.w3.org/Graphics/SVG/1.1/DTD/svg11.dtd">
<svg version="1.1" id="Layer_1" xmlns="http://www.w3.org/2000/svg" xmlns:xlink="http://www.w3.org/1999/xlink" x="0px" y="0px"
	 viewBox="0 0 463 98.8" enable-background="new 0 0 463 98.8" xml:space="preserve">
<path d="M62.6,74.9c-2,6.3-4.6,10.6-7,13.4c-3.1,3.5-7.8,4.2-15.3,4.2c-5.7,0-10.4-0.3-13.1-1.8c-2.5-1.4-3.1-4.1-3.1-11.5V25.4
	c0-11.6,1.2-12.3,12-13.1V8.5H0.5v3.8c11.1,0.8,12,1.5,12,13.1v54.6c0,11.6-1.1,12.6-12.6,13.4v3.8h61.8c1.2-4.2,4.1-17.2,4.9-21.4
	L62.6,74.9z"/>
<path d="M87.7,24c4,0,7-3.3,7-7c0-4.1-3-7.1-6.8-7.1c-3.7,0-7,3-7,7.1C80.9,20.7,84.2,24,87.7,24z M103.7,97.1v-3.5
	C95,92.8,94,92,94,82.7V35.6c-6,2.5-12.4,4.2-19.4,5.3v3.3c8.2,1.4,8.6,1.9,8.6,10.4v28.1c0,9.3-1,10.1-9.5,10.9v3.5H103.7z"/>
<path d="M177.2,97.1v-3.5c-7.9-0.8-8.6-1.4-8.6-10.6V56.6c0-13.2-6.8-20.7-17.6-20.7c-4,0-7.5,1.6-11.3,4.1
	c-3.4,2.3-6.4,4.4-9.1,6.4V35.5c-6,2.7-12.4,4.4-19,5.6v3.1c7.4,1.4,8.2,1.8,8.2,10.5v28.2c0,9-0.7,9.7-10,10.6v3.5h29.6v-3.5
	c-8-0.8-8.9-1.4-8.9-10.6V50.9c4.1-3.5,9.4-7,14.9-7c9.1,0,12.4,6.1,12.4,15.6v22.8c0,9.4-1,10.5-9,11.3v3.5H177.2z"/>
<path d="M251,97.1v-3.5c-8.7-0.8-9.5-1.5-9.5-10.1V35.7c-7.1,1.4-14.7,1.8-25.6,1.8H205v-4.6c0-10.9,1.9-17.9,4.5-21.4
	c1.8-2.6,4.5-4.8,8.5-4.8c6.5,0,11.2,4.4,14.2,7.9c1.1,1.2,2.3,1.2,4,0.3c1.2-0.8,2.3-2.2,3-3.4c0.5-1.5,0.5-3.1-0.7-4.9
	C237,4.4,232.3,0.3,224,0c-5,0.5-11.3,3-16.9,7.5c-7.4,5.9-10.2,12.8-11.2,16.2c-1,2.9-1.5,6.3-1.5,10.5v3.3h-6.7l-3.8,3.8l0.7,1.5
	h9.8v40.7c0,8.5-1.2,9.1-9.7,10.1v3.5h29.9v-3.5C206,92.8,205,92,205,83.5V42.8h18.7c6.5,0,7,1.1,7,7.2v33.4c0,8.6-1,9.4-8.6,10.1
	v3.5H251z"/>
<path d="M305.2,82.7c-4.9,4.6-10.1,6.8-15.6,6.8c-9.5,0-20.2-7.6-20.3-26.2c16.2-0.5,33.3-1.9,35.6-2.3c2.5-0.5,3.1-1.6,3.1-4.4
	c0-10.6-9.1-20.7-20.5-20.7c-7.1,0-14.5,3.7-20.1,10c-5.6,6.1-9,14.5-9,23.9c0,15.4,9.8,29.1,26.6,29.1c4.2,0,13.6-2.5,22.2-13.2
	L305.2,82.7z M284.3,40.9c7.5,0,12.1,6.5,12,13.6c0,1.9-0.8,2.7-3.3,2.7c-7.9,0.3-15.4,0.4-23.1,0.4C272,46.7,278,40.9,284.3,40.9z"
	/>
<path d="M343.4,97.1v-3.5c-8.7-0.8-9.8-1.6-9.8-10.6V0c-4.6,1.6-13.1,4-20.2,4.8V8c8.6,0.7,9.4,1.1,9.4,10.4v64.5
	c0,9-1.2,9.8-9.8,10.6v3.5H343.4z"/>
<path d="M416,90.2l-4.4-0.4c-5-0.5-6-1.2-6-8.3V0c-5,1.8-14.2,3.8-21.3,4.8V8c9.8,0.7,10.5,1.1,10.5,10.1v19.2
	c-3.1-1.1-7.1-1.5-9-1.5c-18.6,0-35.2,14.9-35.2,33.8c0,19.1,14.3,29.1,25.2,29.1c1.6,0,5.3-0.8,10.6-4l8.3-4.9v8.9
	c7.9-2.9,18.1-4.6,21.1-5.2V90.2z M394.8,85.5c-3.3,2.5-8.2,4.6-13.1,4.6C373,90.2,363,82.3,363,66c0-19.8,11.5-25.1,17.7-25.1
	c5.2,0,10.8,2.2,14.1,7V85.5z"/>
<path d="M460.7,52.8c-0.4-3.4-1.9-11.5-3-14.6c-2.9-1.1-6.5-2.3-12.1-2.3c-12.6,0-20.7,8-20.7,17.6c0,10.5,8.9,15,17.1,18.8
	c6.8,3.1,10.8,6.4,10.8,12.4c0,5.7-4.6,9.5-9.7,9.5c-8.2,0-14.3-7.9-16.8-16.9l-3.5,0.7c0,4.9,1.2,14.2,2.2,16.1
	c2.5,2,8.7,4.6,15.7,4.6c10.9,0,22.5-6.4,22.5-18.8c0-9.4-7-14.3-17.2-18.6c-6.1-2.6-11.6-5.7-11.6-11.9c0-5.3,3.7-9.4,8.9-9.4
	c6.7,0,11.5,5.5,14.1,13.5L460.7,52.8z"/>
</svg>
