<?xml version="1.0" standalone="no"?>
<!DOCTYPE svg PUBLIC "-//W3C//DTD SVG 20010904//EN"
 "http://www.w3.org/TR/2001/REC-SVG-20010904/DTD/svg10.dtd">
<svg version="1.0" xmlns="http://www.w3.org/2000/svg"
 width="700.000000pt" height="700.000000pt" viewBox="0 0 700.000000 700.000000"
 preserveAspectRatio="xMidYMid meet">
<metadata>
Created by potrace 1.11, written by Peter Selinger 2001-2013
</metadata>
<g transform="translate(0.000000,700.000000) scale(0.100000,-0.100000)"
fill="#000000" stroke="none">
<path d="M1180 6638 c-10 -4 -29 -5 -40 -3 -16 3 -19 1 -12 -8 13 -15 13 -29
1 -44 -7 -7 -6 -13 0 -17 6 -4 8 -13 4 -21 -6 -17 7 -20 25 -5 9 7 9 7 2 -2
-14 -16 -13 -25 3 -31 8 -3 14 1 14 9 0 7 -5 10 -10 7 -6 -3 -7 -1 -3 5 10 16
29 15 23 0 -2 -7 0 -21 4 -30 7 -14 5 -16 -11 -13 -11 2 -24 6 -29 9 -5 3 -14
-1 -20 -8 -7 -8 -8 -17 -3 -20 5 -3 8 -17 7 -31 -2 -14 2 -25 8 -25 8 0 7 -4
-1 -12 -7 -7 -12 -17 -12 -22 0 -6 5 -4 10 4 7 11 10 11 10 2 0 -7 5 -10 10
-7 6 3 10 1 10 -6 0 -7 3 -9 7 -5 5 4 -1 14 -11 22 -11 8 -17 14 -13 14 4 0 2
10 -4 22 -9 17 -9 24 5 33 8 7 13 15 9 19 -4 4 1 4 10 0 14 -5 17 -16 15 -51
-2 -50 9 -62 53 -58 16 1 32 -1 35 -6 3 -5 11 -6 17 -2 18 11 151 9 159 -2 5
-6 8 -5 8 3 0 7 5 10 10 7 6 -4 8 -12 4 -18 -3 -7 1 -4 9 5 10 13 17 14 25 6
8 -8 15 -8 26 1 10 9 16 9 21 1 5 -8 10 -8 20 0 10 8 17 6 27 -9 8 -12 17 -20
19 -18 2 1 1 -2 -3 -8 -20 -23 -5 -30 69 -30 56 0 78 -4 81 -14 3 -10 0 -11
-9 -5 -12 7 -12 5 -1 -9 8 -9 11 -20 9 -24 -3 -5 5 -10 19 -11 13 -1 24 3 24
8 0 5 -7 6 -17 3 -11 -4 -14 -3 -9 6 5 7 14 10 22 7 8 -3 11 0 7 10 -4 11 -9
12 -16 5 -16 -16 -27 -13 -20 5 3 8 15 14 27 12 15 -2 21 -10 21 -30 0 -15 6
-33 13 -39 6 -7 12 -9 12 -3 0 11 39 17 41 6 1 -4 2 -20 3 -37 1 -24 6 -31 26
-33 14 -1 30 -3 35 -4 6 -1 10 -26 9 -57 0 -31 3 -66 8 -78 4 -14 4 -23 -3
-23 -6 0 -7 -5 -3 -11 4 -7 7 -38 7 -70 0 -54 5 -64 30 -60 4 0 7 -3 7 -8 0
-14 -28 -21 -33 -8 -3 7 -4 2 -4 -10 1 -15 5 -19 11 -13 17 17 29 11 15 -7 -8
-9 -9 -14 -2 -10 6 4 13 1 16 -5 2 -7 3 5 3 27 -2 25 -7 39 -14 38 -15 -4 -15
3 -2 28 8 14 8 19 -1 17 -7 -2 -13 9 -14 24 -2 22 1 26 11 17 8 -6 11 -16 7
-22 -3 -6 -1 -7 5 -3 9 5 9 13 2 26 -9 16 -8 18 5 14 10 -4 14 -15 12 -33 -3
-14 0 -34 5 -45 7 -12 7 -16 0 -12 -9 5 -8 -44 3 -96 2 -10 -1 -18 -6 -18 -4
0 -6 -6 -4 -12 11 -34 12 -78 2 -78 -8 0 -8 -3 0 -11 8 -8 8 -20 3 -35 -5 -13
-6 -24 -2 -24 8 0 6 -166 -2 -187 -3 -7 -2 -13 2 -13 8 0 6 -126 -2 -147 -3
-7 -2 -13 2 -13 4 0 6 -321 6 -712 -2 -595 -4 -713 -15 -710 -11 2 -10 -1 1
-10 11 -10 14 -31 13 -77 -1 -35 -4 -70 -7 -77 -3 -8 -2 -14 2 -14 8 0 6 -126
-2 -147 -3 -7 -2 -13 2 -13 8 0 6 -126 -2 -147 -3 -7 -2 -13 2 -13 4 0 7 -420
7 -932 0 -817 -2 -935 -15 -946 -8 -7 -10 -12 -5 -11 24 3 27 -2 9 -17 -10 -8
-14 -13 -8 -10 7 3 14 -1 17 -8 3 -8 1 -17 -6 -20 -7 -2 -7 -5 -2 -5 7 -1 8
-25 5 -66 -3 -39 -2 -65 4 -65 5 0 1 -6 -9 -14 -22 -16 -42 -12 -42 9 0 18 13
20 20 3 4 -10 6 -10 6 -1 1 7 -7 17 -17 22 -17 9 -19 6 -17 -29 1 -23 -3 -40
-9 -40 -6 0 -3 -5 7 -11 9 -6 15 -15 12 -20 -4 -5 -12 -6 -18 -3 -9 5 -9 4 -1
-5 7 -8 9 -25 4 -46 -6 -25 -4 -32 5 -29 7 3 12 17 11 32 0 18 4 26 14 24 11
-3 11 0 0 12 -8 11 -9 16 -1 16 6 0 11 -5 11 -11 0 -5 5 -7 11 -3 8 4 3 12
-12 21 -19 11 -19 13 -4 9 17 -5 16 -3 -5 15 -14 12 -18 19 -9 16 9 -3 21 -1
26 4 7 7 12 5 17 -6 3 -9 2 -13 -4 -10 -12 8 -13 -5 -1 -25 6 -8 7 -19 3 -25
-4 -5 -7 -17 -7 -25 0 -8 -4 -21 -8 -27 -5 -7 -4 -13 1 -13 6 0 13 -7 16 -16
5 -12 3 -14 -6 -8 -34 24 -67 4 -62 -37 2 -18 -1 -38 -7 -46 -7 -7 -7 -13 -2
-13 16 0 9 -43 -7 -46 -8 -1 -24 -6 -34 -10 -15 -6 -17 -4 -11 6 5 8 4 11 -3
6 -12 -7 -5 -36 8 -36 5 0 12 5 16 11 4 8 9 7 16 -2 7 -10 8 -9 3 6 -5 15 -3
17 6 8 15 -15 3 -34 -19 -26 -15 6 -15 4 -4 -9 11 -14 11 -16 0 -14 -7 1 -19
5 -26 10 -7 4 -12 4 -11 -1 1 -4 1 -18 0 -31 -1 -22 -2 -22 -28 -6 l-28 16 25
-21 c14 -11 28 -21 33 -21 4 0 7 -4 7 -8 0 -8 -28 -13 -87 -15 -17 -1 -29 -6
-26 -10 3 -5 -3 -6 -14 -3 -12 4 -25 1 -32 -8 -10 -12 -9 -14 6 -11 10 1 23
-2 29 -7 8 -5 14 -3 18 7 6 17 26 21 26 4 0 -5 -4 -8 -9 -4 -5 3 -13 -4 -16
-16 -6 -19 -8 -19 -19 -3 -9 12 -15 14 -20 6 -4 -7 -1 -12 6 -13 40 -2 -32
-14 -82 -14 -39 0 -61 -4 -64 -12 -3 -7 -11 -13 -18 -13 -10 0 -10 2 1 9 9 6
4 10 -18 13 -23 3 -30 1 -27 -8 7 -18 -17 -35 -34 -24 -13 9 -13 10 0 11 8 1
19 0 25 -1 5 -1 6 2 2 7 -5 4 -12 8 -15 8 -4 0 -13 4 -19 8 -9 6 -11 3 -6 -10
6 -16 5 -16 -10 -4 -20 16 -35 7 -19 -11 17 -21 -8 -43 -51 -43 -20 0 -37 4
-37 8 0 5 -5 5 -11 1 -7 -4 -57 -8 -113 -9 -55 -2 -110 -3 -121 -4 -20 -1 -20
-7 -19 -133 1 -73 2 -135 3 -138 1 -4 4359 -5 4398 -1 7 0 11 15 10 34 -1 22
2 31 12 29 7 -1 19 3 27 9 11 9 14 8 14 -2 1 -9 4 -7 11 4 8 13 8 22 1 29 -7
7 -14 3 -22 -12 -11 -20 -33 -25 -30 -6 1 5 -4 13 -12 17 -9 6 -10 9 -1 9 8 0
10 7 6 18 -6 15 -5 15 11 3 9 -8 13 -17 9 -20 -4 -3 -9 -13 -11 -21 -2 -8 10
1 26 20 25 29 27 36 16 48 -17 17 -18 23 -1 16 8 -3 13 3 13 15 0 11 -5 17
-11 13 -6 -4 -6 -1 1 9 6 8 10 51 10 96 -1 44 3 79 8 76 4 -3 6 3 2 13 -3 11
-1 26 5 34 8 11 9 9 3 -10 -7 -25 -6 -25 14 -7 20 18 20 18 17 0 -2 -10 -4
-21 -4 -26 -1 -4 -6 -6 -12 -5 -14 4 -19 -21 -8 -47 7 -17 8 -18 10 -2 1 15 3
22 8 45 2 4 6 -2 10 -13 8 -21 11 6 14 163 1 39 6 72 11 72 6 0 5 5 -1 11 -8
8 -9 19 -2 37 7 18 6 28 -3 34 -11 6 -11 8 0 8 7 0 10 4 7 10 -3 5 0 7 9 4 8
-3 12 -12 9 -20 -3 -7 2 -16 10 -20 9 -3 13 -12 10 -21 -6 -14 -8 -14 -18 1
-12 15 -13 15 -17 -1 -4 -14 1 -18 21 -18 21 -1 26 4 27 25 1 14 4 40 7 58 4
28 2 32 -19 32 -13 0 -24 -4 -24 -10 0 -5 6 -10 14 -10 8 0 18 -4 21 -10 4 -6
-2 -7 -16 -1 -35 12 -34 30 0 42 34 12 37 18 19 38 -7 8 -8 11 -3 8 6 -3 11
17 11 51 4 170 6 191 21 196 8 3 11 11 7 17 -5 8 -1 8 14 0 30 -16 40 -13 18
4 -19 14 -19 15 -2 15 15 0 16 3 6 15 -7 8 -8 15 -3 15 4 0 8 34 8 77 0 72 1
76 23 80 13 1 21 -1 18 -5 -3 -5 1 -9 9 -9 11 0 12 4 4 14 -7 7 -19 12 -28 11
-12 -2 -16 6 -16 37 0 22 -4 45 -8 52 -4 6 -3 15 3 18 6 4 9 1 8 -6 -2 -6 2
-13 9 -16 13 -5 12 14 -2 37 -8 13 -6 13 8 2 9 -8 22 -10 29 -6 7 5 5 -3 -5
-19 -12 -19 -14 -27 -5 -27 7 -1 4 -6 -7 -13 -11 -7 -21 -21 -23 -32 -2 -18
-1 -18 11 3 7 12 15 20 18 18 3 -3 10 4 17 14 8 13 9 20 1 20 -5 0 -7 4 -4 10
12 19 14 50 3 50 -7 0 -7 4 -1 13 5 6 9 32 7 57 -3 58 -3 58 -14 40 -5 -8 -10
-10 -10 -5 0 6 -21 10 -47 10 -27 -1 -56 3 -65 7 -10 5 -18 5 -18 0 0 -5 -18
-6 -40 -2 -22 4 -43 3 -46 -1 -3 -5 -10 -7 -15 -3 -13 7 -38 -13 -35 -29 1 -7
5 -18 9 -24 5 -7 4 -13 -1 -13 -6 0 -12 7 -16 15 -3 8 -12 15 -21 15 -8 0 -15
5 -15 11 0 5 4 8 9 4 6 -3 25 8 44 25 25 22 34 36 30 50 -4 15 -9 18 -18 10
-6 -5 -16 -6 -20 -2 -5 4 -5 1 -1 -6 4 -7 12 -10 17 -7 14 9 11 -8 -7 -33 -8
-12 -20 -20 -25 -17 -5 4 -9 0 -9 -7 0 -9 -3 -9 -10 2 -7 11 -10 11 -10 2 0
-7 -4 -11 -8 -8 -5 3 -8 -5 -7 -17 1 -14 8 -22 20 -22 10 0 20 -7 22 -15 4
-13 3 -13 -7 0 -9 11 -13 12 -17 2 -2 -6 -8 -10 -11 -8 -4 2 -7 -20 -7 -50 0
-42 -3 -54 -15 -54 -12 -1 -12 -3 3 -11 25 -15 21 -24 -13 -25 -33 -1 -37 5
-17 26 10 12 9 12 -4 2 -21 -16 -31 -63 -17 -79 6 -8 7 -13 1 -13 -6 0 -10
-17 -9 -37 1 -31 -2 -38 -17 -36 -11 0 -16 -4 -13 -12 2 -7 -2 -16 -9 -19 -8
-3 -12 -12 -9 -20 3 -8 12 -12 21 -9 8 3 10 8 5 12 -6 4 -5 11 3 18 10 9 13 6
13 -12 0 -27 -36 -42 -45 -19 -11 28 -20 13 -19 -33 0 -37 -4 -48 -15 -47 -19
1 -18 -34 2 -46 12 -8 12 -11 -1 -22 -8 -7 -11 -9 -7 -4 8 11 -12 38 -24 31
-4 -3 -6 3 -4 15 2 11 -1 22 -6 26 -6 3 -9 -8 -8 -28 1 -35 -6 -71 -16 -88 -3
-6 -1 -10 5 -10 6 0 9 -4 5 -10 -3 -5 -13 -6 -22 -3 -11 5 -14 3 -8 -6 6 -10
3 -11 -13 -2 -16 8 -21 7 -26 -5 -4 -10 -2 -13 7 -8 9 6 9 5 0 -8 -17 -20 -4
-32 17 -16 9 7 6 3 -7 -9 -13 -12 -23 -27 -23 -32 0 -6 -7 -7 -17 -4 -10 4
-14 2 -10 -4 4 -6 1 -14 -5 -17 -7 -3 -3 -3 10 0 18 4 22 1 21 -18 0 -13 -3
-17 -6 -10 -4 10 -8 10 -21 0 -12 -10 -14 -10 -8 0 4 7 2 12 -7 12 -17 0 -30
-41 -21 -64 3 -9 1 -17 -5 -17 -6 -1 -17 -2 -23 -3 -7 -1 -19 2 -26 8 -7 5
-12 5 -11 0 1 -5 0 -11 -1 -14 -1 -3 -3 -18 -4 -35 -1 -27 -4 -30 -33 -29 -18
0 -33 -5 -34 -10 -1 -6 -2 -22 -2 -36 -2 -22 -6 -25 -34 -22 -23 1 -33 -2 -33
-12 0 -8 -8 -22 -17 -32 -16 -16 -16 -16 7 -9 19 6 22 4 14 -5 -7 -6 -38 -14
-70 -16 -76 -5 -92 -8 -101 -19 -4 -4 -3 -5 4 -1 6 3 14 2 18 -4 4 -6 11 -7
17 -4 7 4 8 2 4 -5 -4 -6 -12 -9 -17 -5 -5 3 -9 2 -8 -3 4 -24 -7 -28 -74 -28
-67 0 -86 -6 -87 -29 0 -5 6 -3 13 3 10 8 14 7 14 -4 0 -7 -3 -14 -6 -13 -18
2 -24 -3 -13 -10 7 -5 -10 -9 -40 -10 -29 -1 -74 -3 -100 -5 -31 -3 -48 0 -48
7 0 7 -3 7 -8 1 -10 -14 -32 -17 -32 -4 0 8 -4 8 -12 2 -7 -5 -75 -9 -151 -9
-85 1 -137 -3 -137 -9 0 -7 -3 -7 -8 0 -9 13 -145 14 -154 0 -5 -6 -8 -6 -8 0
0 6 -92 10 -255 10 -140 0 -255 4 -255 8 0 5 -5 5 -11 2 -20 -13 -89 -11 -89
3 0 6 -5 12 -11 12 -5 0 -7 -5 -3 -12 5 -7 3 -8 -6 -3 -10 6 -9 11 6 23 18 13
18 14 -6 7 -22 -7 -23 -6 -12 8 15 18 3 30 -18 17 -9 -5 -19 -5 -27 2 -9 7
-13 7 -13 -1 0 -7 -5 -9 -12 -4 -7 4 -35 8 -63 9 -80 2 -87 3 -80 14 3 6 2 10
-4 10 -5 0 -11 -7 -13 -16 -3 -14 -6 -13 -21 4 -17 18 -17 20 -1 18 9 0 19 4
21 10 5 15 -50 34 -78 27 -17 -5 -20 -3 -14 7 6 10 3 12 -11 7 -17 -6 -17 -5
-3 5 10 9 13 21 8 38 -4 14 -8 18 -8 10 -1 -9 -4 -11 -9 -5 -8 12 -32 18 -32
8 0 -3 8 -16 17 -27 l17 -21 -22 21 c-16 14 -24 34 -25 62 -2 38 -8 47 -30 43
-4 -1 -10 6 -13 14 -3 8 -10 12 -15 9 -5 -3 -6 2 -3 10 4 9 1 16 -6 16 -7 0
-2 8 11 18 15 13 19 21 10 26 -6 4 -10 4 -9 -1 3 -8 -5 -13 -18 -13 -4 0 1 11
10 25 13 20 14 23 1 19 -10 -4 -13 0 -10 15 2 12 6 25 10 30 3 5 1 12 -3 15
-5 3 -8 25 -8 48 1 24 -2 51 -6 60 -5 10 -5 18 -1 18 10 0 8 303 -1 319 -4 6
-3 11 1 11 8 0 7 89 -1 97 -2 3 -17 -3 -33 -12 l-28 -17 25 21 c14 11 31 21
38 21 10 0 10 5 2 20 -8 15 -8 20 2 20 9 0 9 3 -2 10 -11 7 -11 10 -2 10 10 0
10 5 2 20 -8 15 -8 20 1 20 8 0 8 4 -1 15 -9 11 -9 15 -1 15 7 0 9 5 6 10 -4
6 -12 8 -18 4 -7 -3 -4 1 6 9 14 11 15 16 5 20 -10 4 -10 6 0 6 9 1 10 6 2 20
-7 14 -6 21 3 25 6 3 -1 4 -18 1 l-30 -4 27 12 c21 10 24 16 17 30 -7 12 -6
17 3 17 9 0 9 3 -2 10 -11 7 -11 10 -2 10 10 0 10 5 2 20 -8 15 -8 20 1 20 8
0 8 4 -1 15 -7 8 -8 15 -3 15 8 0 8 89 -1 97 -2 3 -13 -1 -25 -8 -19 -12 -19
-15 -4 -31 9 -10 13 -18 8 -18 -4 0 -1 -8 6 -17 13 -16 12 -17 -4 -4 -9 8 -15
16 -12 19 3 3 -2 13 -10 22 -14 16 -13 19 9 34 14 9 30 16 36 16 8 0 8 6 0 20
-8 15 -8 20 2 20 9 0 9 3 -2 10 -11 7 -11 10 -2 10 10 0 10 5 2 20 -8 15 -8
20 1 20 8 0 8 4 -1 15 -7 8 -8 15 -3 15 8 0 8 89 -1 97 -2 3 -13 -1 -25 -8
-19 -12 -19 -15 -4 -31 9 -10 13 -18 8 -18 -4 0 -1 -8 6 -17 13 -16 12 -17 -4
-4 -9 8 -15 16 -12 19 3 3 -2 13 -10 22 -14 16 -13 19 9 34 14 9 30 16 36 16
8 0 8 6 0 20 -8 15 -8 20 2 20 9 0 9 3 -2 10 -8 5 -10 10 -5 10 6 0 8 60 5
170 -3 110 -1 170 5 170 6 0 3 5 -5 10 -11 7 -11 10 -2 10 9 0 10 5 2 19 -7
14 -6 21 3 25 6 3 -1 4 -18 1 l-30 -4 27 12 c21 10 24 16 17 30 -7 12 -6 17 3
17 9 0 9 3 -2 10 -11 7 -11 10 -2 10 10 0 10 5 2 20 -8 15 -8 20 1 20 8 0 8 4
-1 15 -7 8 -8 15 -3 15 8 0 8 89 -1 97 -2 3 -13 -1 -25 -8 -19 -12 -19 -15 -4
-31 9 -10 13 -18 8 -18 -4 0 -1 -8 6 -17 13 -16 12 -17 -4 -4 -9 8 -15 16 -12
19 3 3 -2 13 -10 22 -14 16 -13 19 9 34 14 9 30 16 36 16 8 0 8 6 0 20 -8 15
-8 20 2 20 9 0 9 3 -2 10 -11 7 -11 10 -2 10 10 0 10 5 2 20 -8 15 -8 20 1 20
8 0 8 4 -1 15 -7 8 -8 15 -3 15 8 0 8 89 -1 97 -2 3 -13 -1 -25 -8 -19 -12
-19 -15 -4 -31 9 -10 13 -18 8 -18 -4 0 -1 -8 6 -17 13 -16 12 -17 -4 -4 -9 8
-15 16 -12 19 3 3 -2 13 -10 22 -14 16 -13 19 9 34 14 9 30 16 36 16 8 0 8 6
0 20 -8 15 -8 20 2 20 9 0 9 3 -2 10 -8 5 -10 10 -5 10 6 0 8 60 5 170 -3 110
-1 170 5 170 6 0 3 5 -5 10 -11 7 -11 10 -2 10 9 0 10 5 2 19 -7 14 -6 21 3
25 6 3 -1 4 -18 1 l-30 -4 27 12 c21 10 24 16 17 30 -7 12 -6 17 3 17 9 0 9 3
-2 10 -11 7 -11 10 -2 10 10 0 10 5 2 20 -8 15 -8 20 1 20 8 0 8 4 -1 15 -7 8
-8 15 -3 15 8 0 8 89 -1 97 -2 3 -13 -1 -25 -8 -19 -12 -19 -15 -4 -31 9 -10
13 -18 8 -18 -4 0 -1 -8 6 -17 13 -16 12 -17 -4 -4 -9 8 -15 16 -12 19 3 3 -2
13 -10 22 -14 16 -13 19 9 34 14 9 30 16 36 16 8 0 8 6 0 20 -8 15 -8 20 2 20
9 0 9 3 -2 10 -11 7 -11 10 -2 10 10 0 10 5 2 20 -8 15 -8 20 1 20 8 0 8 4 -1
15 -7 8 -8 15 -3 15 8 0 8 89 -1 97 -2 3 -13 -1 -25 -8 -19 -12 -19 -15 -4
-31 9 -10 13 -18 8 -18 -4 0 -1 -8 6 -17 13 -16 12 -17 -4 -4 -9 8 -15 16 -12
19 3 3 -2 13 -10 22 -14 16 -13 19 9 34 14 9 30 16 36 16 8 0 8 6 0 20 -8 15
-8 20 2 20 9 0 9 3 -2 10 -13 9 -13 10 0 10 13 0 13 1 0 10 -13 9 -13 10 0 10
13 0 13 1 0 10 -11 7 -11 10 -2 10 9 0 10 5 2 19 -7 14 -6 21 3 25 6 3 -1 4
-18 1 l-30 -4 27 12 c21 10 24 16 17 30 -7 12 -6 17 3 17 9 0 9 3 -2 10 -11 7
-11 10 -2 10 10 0 10 5 2 20 -8 15 -8 20 1 20 8 0 8 4 -1 15 -7 8 -8 15 -3 15
8 0 8 89 -1 97 -2 3 -13 -1 -25 -8 -19 -12 -19 -15 -4 -31 9 -10 13 -18 8 -18
-4 0 -1 -8 6 -17 13 -16 12 -17 -4 -4 -9 8 -15 16 -12 19 3 3 -2 13 -10 22
-14 16 -13 19 9 34 14 9 30 16 36 16 8 0 8 6 0 20 -8 15 -8 20 2 20 9 0 9 3
-2 10 -11 7 -11 10 -2 10 10 0 10 5 2 20 -8 15 -8 20 1 20 8 0 8 4 -1 15 -7 8
-8 15 -3 15 8 0 8 89 -1 97 -2 3 -13 -1 -25 -8 -19 -12 -19 -15 -4 -31 9 -10
13 -18 8 -18 -4 0 -1 -8 6 -17 13 -16 12 -17 -4 -4 -9 8 -15 16 -12 19 3 3 -2
13 -10 22 -14 16 -13 19 9 34 14 9 30 16 36 16 8 0 8 6 0 20 -8 15 -8 20 2 20
9 0 9 3 -2 10 -8 5 -10 10 -5 10 6 0 8 60 5 170 -3 110 -1 170 5 170 6 0 3 5
-5 10 -11 7 -11 10 -2 10 10 0 10 5 2 20 -6 11 -7 20 -2 20 4 0 8 9 8 20 0 11
-5 20 -11 20 -6 0 -7 3 0 8 6 4 10 16 10 27 0 11 -4 23 -10 27 -7 5 -7 8 0 8
6 0 10 80 10 218 1 132 5 217 10 217 6 0 15 4 22 8 7 4 17 0 23 -10 10 -16 11
-16 6 -1 -3 10 -2 19 2 22 4 2 6 29 6 60 -1 35 3 56 10 57 6 1 16 2 21 4 6 1
17 3 25 3 10 1 15 13 15 35 0 31 2 32 37 31 21 -1 35 3 32 7 -3 5 1 9 8 10 7
0 4 4 -7 9 -11 5 -14 9 -6 9 7 1 11 7 7 16 -7 18 5 20 23 3 10 -11 11 -10 6 2
-4 12 7 15 65 15 38 0 70 4 70 8 0 4 8 3 18 -2 11 -6 24 -6 36 1 14 8 21 7 27
-3 7 -11 9 -11 9 -1 0 7 5 10 12 6 7 -5 8 -3 3 6 -5 8 -3 11 6 8 8 -3 13 -11
11 -17 -1 -7 2 -10 7 -6 6 3 8 12 5 19 -7 18 -42 27 -50 14 -3 -5 -13 -7 -21
-4 -9 4 -12 1 -8 -7 4 -6 0 -4 -8 5 -8 10 -17 15 -20 11 -4 -3 -7 -1 -7 6 0 8
7 11 15 7 8 -3 15 -1 15 5 0 5 11 7 25 5 15 -3 25 0 25 7 0 7 4 6 10 -3 6 -9
13 -11 18 -5 9 12 42 16 42 5 0 -9 26 -7 36 3 4 4 14 1 22 -6 9 -6 13 -7 10
-2 -4 6 8 10 28 10 19 0 34 -3 34 -8 0 -4 6 -5 13 0 6 4 39 8 72 9 91 2 89 2
76 18 -7 8 -8 16 -4 19 6 4 10 210 4 237 -2 8 -2509 6 -2531 -2z m16 -20 c4
-5 2 -8 -4 -8 -8 0 -9 -7 -2 -24 8 -23 5 -36 -11 -36 -4 0 -6 15 -5 34 2 26 0
33 -11 29 -10 -4 -11 -9 -4 -16 14 -14 14 -30 1 -22 -5 3 -7 0 -4 -8 3 -8 1
-18 -5 -22 -7 -3 -8 0 -5 9 4 9 1 16 -6 16 -9 0 -9 4 -3 13 6 6 9 19 8 27 -3
17 36 22 51 8z m-46 -144 c0 -8 -5 -12 -10 -9 -6 4 -8 11 -5 16 9 14 15 11 15
-7z m521 -151 c13 -16 12 -17 -3 -4 -10 7 -18 15 -18 17 0 8 8 3 21 -13z
m1589 3 c0 -2 -7 -6 -15 -10 -8 -3 -15 -1 -15 4 0 6 7 10 15 10 8 0 15 -2 15
-4z m-266 -122 c3 -8 2 -12 -4 -9 -6 3 -10 10 -10 16 0 14 7 11 14 -7z m-5
-37 c0 -9 -2 -9 -5 0 -3 7 -13 9 -22 6 -14 -4 -14 -3 -2 5 16 12 30 7 29 -11z
m-75 -93 c6 2 8 1 4 -1 -11 -6 -10 -24 1 -20 5 1 9 -1 10 -5 1 -5 -1 -7 -2 -5
-2 1 -11 -4 -19 -11 -13 -10 -18 -9 -28 3 -8 9 -8 15 -2 15 6 0 9 10 7 22 -3
16 -2 19 6 11 6 -6 17 -10 23 -9z m-904 -94 c0 -5 -4 -10 -10 -10 -5 0 -10 5
-10 10 0 6 5 10 10 10 6 0 10 -4 10 -10z m820 -280 c0 -5 -5 -10 -11 -10 -5 0
-7 5 -4 10 3 6 8 10 11 10 2 0 4 -4 4 -10z m19 -193 c8 -11 6 -13 -9 -12 -11
1 -23 5 -27 10 -5 4 -2 5 5 1 6 -4 12 -2 12 3 0 15 5 14 19 -2z m6 -127 c-3
-5 -14 -10 -23 -9 -14 0 -13 2 3 9 27 11 27 11 20 0z m-30 -62 c-7 -32 -13
-32 -11 1 0 16 4 27 8 25 4 -2 5 -14 3 -26z m30 -18 c-3 -5 -12 -10 -18 -10
-7 0 -6 4 3 10 19 12 23 12 15 0z m-25 -55 c14 -19 14 -19 -2 -6 -10 7 -18 18
-18 24 0 6 1 8 3 6 1 -2 9 -13 17 -24z m20 15 c0 -5 -2 -10 -4 -10 -3 0 -8 5
-11 10 -3 6 -1 10 4 10 6 0 11 -4 11 -10z m5 -40 c-3 -5 -14 -10 -23 -9 -14 0
-13 2 3 9 27 11 27 11 20 0z m-30 -62 c-7 -32 -13 -32 -11 1 0 16 4 27 8 25 4
-2 5 -14 3 -26z m30 -18 c-3 -5 -12 -10 -18 -10 -7 0 -6 4 3 10 19 12 23 12
15 0z m-30 -60 c2 -12 1 -20 -2 -16 -4 4 -8 16 -10 28 -4 28 6 18 12 -12z m25
20 c0 -5 -2 -10 -4 -10 -3 0 -8 5 -11 10 -3 6 -1 10 4 10 6 0 11 -4 11 -10z
m-7 -55 c-3 -9 -8 -14 -10 -11 -3 3 -2 9 2 15 9 16 15 13 8 -4z m-1 -181 c-6
-12 -9 -7 -9 16 0 23 3 28 9 16 5 -9 5 -23 0 -32z m1 -59 c-3 -9 -8 -14 -10
-11 -3 3 -2 9 2 15 9 16 15 13 8 -4z m-1 -181 c-6 -12 -9 -7 -9 16 0 23 3 28
9 16 5 -9 5 -23 0 -32z m1 -59 c-3 -9 -8 -14 -10 -11 -3 3 -2 9 2 15 9 16 15
13 8 -4z m-19 -71 c3 -8 2 -12 -4 -9 -6 3 -10 10 -10 16 0 14 7 11 14 -7z m27
-17 c-6 -8 -8 -17 -4 -20 3 -4 1 -7 -5 -7 -15 0 -15 13 0 28 16 16 23 15 9 -1z
m-8 -72 c-3 -9 -8 -14 -10 -11 -3 3 -2 9 2 15 9 16 15 13 8 -4z m-1 -181 c-6
-12 -9 -7 -9 16 0 23 3 28 9 16 5 -9 5 -23 0 -32z m1 -59 c-3 -9 -8 -14 -10
-11 -3 3 -2 9 2 15 9 16 15 13 8 -4z m-1 -181 c-6 -12 -9 -7 -9 16 0 23 3 28
9 16 5 -9 5 -23 0 -32z m1 -59 c-3 -9 -8 -14 -10 -11 -3 3 -2 9 2 15 9 16 15
13 8 -4z m-19 -71 c3 -8 2 -12 -4 -9 -6 3 -10 10 -10 16 0 14 7 11 14 -7z m27
-17 c-6 -8 -8 -17 -4 -20 3 -4 1 -7 -5 -7 -15 0 -15 13 0 28 16 16 23 15 9 -1z
m4 -57 c-3 -5 -14 -10 -23 -9 -14 0 -13 2 3 9 27 11 27 11 20 0z m-30 -62 c-7
-32 -13 -32 -11 1 0 16 4 27 8 25 4 -2 5 -14 3 -26z m30 -18 c-3 -5 -12 -10
-18 -10 -7 0 -6 4 3 10 19 12 23 12 15 0z m-25 -55 c14 -19 14 -19 -2 -6 -10
7 -18 18 -18 24 0 6 1 8 3 6 1 -2 9 -13 17 -24z m20 15 c0 -5 -2 -10 -4 -10
-3 0 -8 5 -11 10 -3 6 -1 10 4 10 6 0 11 -4 11 -10z m5 -40 c-3 -5 -14 -10
-23 -9 -14 0 -13 2 3 9 27 11 27 11 20 0z m-30 -62 c-7 -32 -13 -32 -11 1 0
16 4 27 8 25 4 -2 5 -14 3 -26z m30 -18 c-3 -5 -12 -10 -18 -10 -7 0 -6 4 3
10 19 12 23 12 15 0z m-30 -60 c2 -12 1 -20 -2 -16 -4 4 -8 16 -10 28 -2 12
-1 19 2 16 3 -3 8 -16 10 -28z m25 20 c0 -5 -2 -10 -4 -10 -3 0 -8 5 -11 10
-3 6 -1 10 4 10 6 0 11 -4 11 -10z m-7 -55 c-3 -9 -8 -14 -10 -11 -3 3 -2 9 2
15 9 16 15 13 8 -4z m-1 -181 c-6 -12 -9 -7 -9 16 0 23 3 28 9 16 5 -9 5 -23
0 -32z m1 -59 c-3 -9 -8 -14 -10 -11 -3 3 -2 9 2 15 9 16 15 13 8 -4z m-1
-181 c-6 -12 -9 -7 -9 16 0 23 3 28 9 16 5 -9 5 -23 0 -32z m1 -59 c-3 -9 -8
-14 -10 -11 -3 3 -2 9 2 15 9 16 15 13 8 -4z m-19 -71 c3 -8 2 -12 -4 -9 -6 3
-10 10 -10 16 0 14 7 11 14 -7z m27 -17 c-6 -8 -8 -17 -4 -20 3 -4 1 -7 -5 -7
-15 0 -15 13 0 28 16 16 23 15 9 -1z m4 -57 c-3 -5 -14 -10 -23 -9 -14 0 -13
2 3 9 27 11 27 11 20 0z m-30 -62 c-7 -32 -13 -32 -11 1 0 16 4 27 8 25 4 -2
5 -14 3 -26z m30 -18 c-3 -5 -12 -10 -18 -10 -7 0 -6 4 3 10 19 12 23 12 15 0z
m-25 -55 c14 -19 14 -19 -2 -6 -10 7 -18 18 -18 24 0 6 1 8 3 6 1 -2 9 -13 17
-24z m20 15 c0 -5 -2 -10 -4 -10 -3 0 -8 5 -11 10 -3 6 -1 10 4 10 6 0 11 -4
11 -10z m5 -40 c-3 -5 -14 -10 -23 -9 -14 0 -13 2 3 9 27 11 27 11 20 0z m-30
-62 c-7 -32 -13 -32 -11 1 0 16 4 27 8 25 4 -2 5 -14 3 -26z m30 -18 c-3 -5
-12 -10 -18 -10 -7 0 -6 4 3 10 19 12 23 12 15 0z m-30 -60 c2 -12 1 -20 -2
-16 -4 4 -8 16 -10 28 -4 28 6 18 12 -12z m25 20 c0 -5 -2 -10 -4 -10 -3 0 -8
5 -11 10 -3 6 -1 10 4 10 6 0 11 -4 11 -10z m-7 -55 c-3 -9 -8 -14 -10 -11 -3
3 -2 9 2 15 9 16 15 13 8 -4z m-1 -181 c-6 -12 -9 -7 -9 16 0 23 3 28 9 16 5
-9 5 -23 0 -32z m1 -59 c-3 -9 -8 -14 -10 -11 -3 3 -2 9 2 15 9 16 15 13 8 -4z
m-1 -181 c-6 -12 -9 -7 -9 16 0 23 3 28 9 16 5 -9 5 -23 0 -32z m1 -59 c-3 -9
-8 -14 -10 -11 -3 3 -2 9 2 15 9 16 15 13 8 -4z m-19 -71 c3 -8 2 -12 -4 -9
-6 3 -10 10 -10 16 0 14 7 11 14 -7z m27 -17 c-6 -8 -8 -17 -4 -20 3 -4 1 -7
-5 -7 -15 0 -15 13 0 28 16 16 23 15 9 -1z m-9 -93 c-6 -12 -9 -7 -9 16 0 23
3 28 9 16 5 -9 5 -23 0 -32z m3025 7 c0 -11 -5 -18 -9 -15 -4 3 -5 11 -1 19 7
21 12 19 10 -4z m-3024 -66 c-3 -9 -8 -14 -10 -11 -3 3 -2 9 2 15 9 16 15 13
8 -4z m1 -91 c3 -8 2 -12 -4 -9 -6 3 -10 10 -10 16 0 14 7 11 14 -7z m-20 -26
c-4 -6 1 -17 11 -25 11 -7 14 -13 8 -13 -6 0 -15 6 -20 13 -12 15 -13 48 -1
41 5 -3 5 -10 2 -16z m2686 7 c-7 -9 -15 -13 -19 -10 -3 3 1 10 9 15 21 14 24
12 10 -5z m-5 -35 c3 -5 1 -10 -4 -10 -6 0 -11 5 -11 10 0 6 2 10 4 10 3 0 8
-4 11 -10z m-2675 -40 c0 -5 -2 -10 -4 -10 -3 0 -8 5 -11 10 -3 6 -1 10 4 10
6 0 11 -4 11 -10z m33 -15 c-3 -9 -8 -14 -10 -11 -3 3 -2 9 2 15 9 16 15 13 8
-4z m-33 -25 c0 -5 -2 -10 -4 -10 -3 0 -8 5 -11 10 -3 6 -1 10 4 10 6 0 11 -4
11 -10z m11 -33 c-10 -9 -11 -8 -5 6 3 10 9 15 12 12 3 -3 0 -11 -7 -18z
m2934 -67 c3 -6 -1 -7 -9 -4 -18 7 -21 14 -7 14 6 0 13 -4 16 -10z m-2947 -25
c-3 -3 -9 2 -12 12 -6 14 -5 15 5 6 7 -7 10 -15 7 -18z m2898 -392 c-10 -10
-19 5 -10 18 6 11 8 11 12 0 2 -7 1 -15 -2 -18z m-843 -208 c-3 -9 -8 -14 -10
-11 -3 3 -2 9 2 15 9 16 15 13 8 -4z m767 -15 c0 -5 -2 -10 -4 -10 -3 0 -8 5
-11 10 -3 6 -1 10 4 10 6 0 11 -4 11 -10z m-787 -25 c-3 -9 -8 -14 -10 -11 -3
3 -2 9 2 15 9 16 15 13 8 -4z m-1537 -30 c-24 -18 -33 -19 -42 -3 -5 7 -2 9 8
6 8 -4 21 -2 29 3 22 14 26 10 5 -6z m-59 -10 c5 -4 2 -5 -4 -1 -12 7 -18 -6
-13 -29 1 -5 -2 -6 -7 -2 -4 5 -8 12 -8 15 0 4 -3 12 -7 18 -8 13 28 12 39 -1z
m66 -24 c3 -14 1 -18 -9 -14 -8 3 -14 11 -14 19 0 21 17 17 23 -5z m-40 2 c-7
-2 -19 -2 -25 0 -7 3 -2 5 12 5 14 0 19 -2 13 -5z m-1733 -58 c18 16 20 16 26
1 3 -9 10 -16 16 -16 5 0 6 5 2 12 -5 7 -3 8 5 3 10 -5 10 -10 1 -19 -8 -8
-15 -7 -24 7 -12 15 -15 16 -26 2 -14 -16 -40 -16 -52 0 -5 6 -8 5 -8 -2 0 -7
-5 -13 -11 -13 -8 0 -8 4 0 13 8 10 7 17 -2 27 -6 7 3 2 20 -10 32 -23 33 -23
53 -5z m2360 9 c0 -8 -19 -13 -24 -6 -3 5 1 9 9 9 8 0 15 -2 15 -3z m1670
-179 c0 -12 -19 -12 -23 0 -4 9 -1 12 9 8 7 -3 14 -7 14 -8z"/>
<path d="M2890 6039 c0 -5 5 -7 10 -4 6 3 10 8 10 11 0 2 -4 4 -10 4 -5 0 -10
-5 -10 -11z"/>
<path d="M1160 6450 c-13 -8 -13 -11 3 -27 10 -11 17 -13 17 -5 0 7 -5 12 -11
12 -8 0 -8 5 1 15 14 17 11 19 -10 5z"/>
<path d="M1536 6351 c-4 -5 -2 -12 4 -16 5 -3 10 -11 10 -17 0 -6 -6 -6 -16 2
-12 11 -18 10 -32 -3 -9 -10 -11 -17 -5 -17 6 0 13 6 15 12 3 9 10 8 23 -5 12
-12 21 -15 28 -8 5 5 15 7 22 5 18 -7 25 19 10 40 -9 11 -15 14 -20 6 -5 -8
-10 -8 -20 0 -8 7 -15 7 -19 1z m55 -25 c-1 -3 -4 -6 -8 -7 -5 0 -15 -6 -23
-12 -8 -6 -6 -2 4 11 17 20 29 23 27 8z"/>
<path d="M1486 6334 c-5 -14 -4 -15 9 -4 17 14 19 20 6 20 -5 0 -12 -7 -15
-16z"/>
<path d="M3310 6338 c0 -4 4 -8 9 -8 6 0 12 4 15 8 3 5 -1 9 -9 9 -8 0 -15 -4
-15 -9z"/>
<path d="M3390 6340 c0 -5 5 -10 10 -10 6 0 10 5 10 10 0 6 -4 10 -10 10 -5 0
-10 -4 -10 -10z"/>
<path d="M1437 6323 c-10 -9 -9 -23 1 -23 5 0 9 7 9 15 0 17 -1 18 -10 8z"/>
<path d="M1893 6127 c-3 -7 -3 -9 2 -5 4 4 13 4 19 -2 7 -5 17 -5 26 0 8 6 11
10 5 11 -5 0 -18 2 -27 4 -10 2 -21 -2 -25 -8z"/>
<path d="M1900 6100 c8 -5 20 -10 25 -10 6 0 3 5 -5 10 -8 5 -19 10 -25 10 -5
0 -3 -5 5 -10z"/>
<path d="M1940 6099 c0 -5 5 -7 10 -4 6 3 10 8 10 11 0 2 -4 4 -10 4 -5 0 -10
-5 -10 -11z"/>
<path d="M2899 5993 c-13 -16 -12 -17 4 -4 9 7 17 15 17 17 0 8 -8 3 -21 -13z"/>
<path d="M1975 5770 c6 -30 16 -40 12 -12 -2 12 -6 24 -10 28 -3 4 -4 -4 -2
-16z"/>
<path d="M1976 5722 c-3 -5 1 -9 9 -9 8 0 12 4 9 9 -3 4 -7 8 -9 8 -2 0 -6 -4
-9 -8z"/>
<path d="M2000 5620 c-9 -6 -10 -10 -3 -10 6 0 15 5 18 10 8 12 4 12 -15 0z"/>
<path d="M1986 5518 c3 -5 10 -6 15 -3 13 9 11 12 -6 12 -8 0 -12 -4 -9 -9z"/>
<path d="M1995 5491 c-3 -5 -2 -12 3 -15 5 -3 9 1 9 9 0 17 -3 19 -12 6z"/>
<path d="M1976 5438 c3 -4 11 -5 19 -1 21 7 19 12 -4 10 -11 0 -18 -5 -15 -9z"/>
<path d="M1970 5416 c0 -2 8 -10 18 -17 15 -13 16 -12 3 4 -13 16 -21 21 -21
13z"/>
<path d="M1990 5360 c0 -5 5 -10 11 -10 5 0 7 5 4 10 -3 6 -8 10 -11 10 -2 0
-4 -4 -4 -10z"/>
<path d="M1995 5320 c3 -5 8 -10 11 -10 2 0 4 5 4 10 0 6 -5 10 -11 10 -5 0
-7 -4 -4 -10z"/>
<path d="M1976 5278 c3 -4 11 -5 19 -1 21 7 19 12 -4 10 -11 0 -18 -5 -15 -9z"/>
<path d="M1970 5256 c0 -2 8 -10 18 -17 15 -13 16 -12 3 4 -13 16 -21 21 -21
13z"/>
<path d="M1990 5200 c0 -5 5 -10 11 -10 5 0 7 5 4 10 -3 6 -8 10 -11 10 -2 0
-4 -4 -4 -10z"/>
<path d="M1995 5160 c3 -5 8 -10 11 -10 2 0 4 5 4 10 0 6 -5 10 -11 10 -5 0
-7 -4 -4 -10z"/>
<path d="M1976 5118 c3 -4 11 -5 19 -1 21 7 19 12 -4 10 -11 0 -18 -5 -15 -9z"/>
<path d="M1970 5096 c0 -2 8 -10 18 -17 15 -13 16 -12 3 4 -13 16 -21 21 -21
13z"/>
<path d="M1976 4862 c-3 -5 1 -9 9 -9 8 0 12 4 9 9 -3 4 -7 8 -9 8 -2 0 -6 -4
-9 -8z"/>
<path d="M1976 4678 c3 -4 11 -5 19 -1 21 7 19 12 -4 10 -11 0 -18 -5 -15 -9z"/>
<path d="M1976 4647 c3 -10 9 -15 12 -12 3 3 0 11 -7 18 -10 9 -11 8 -5 -6z"/>
<path d="M1996 4602 c-3 -5 1 -9 9 -9 8 0 12 4 9 9 -3 4 -7 8 -9 8 -2 0 -6 -4
-9 -8z"/>
<path d="M1976 4382 c-3 -5 1 -9 9 -9 8 0 12 4 9 9 -3 4 -7 8 -9 8 -2 0 -6 -4
-9 -8z"/>
<path d="M1976 4198 c3 -4 11 -5 19 -1 21 7 19 12 -4 10 -11 0 -18 -5 -15 -9z"/>
<path d="M1976 4167 c3 -10 9 -15 12 -12 3 3 0 11 -7 18 -10 9 -11 8 -5 -6z"/>
<path d="M1996 4122 c-3 -5 1 -9 9 -9 8 0 12 4 9 9 -3 4 -7 8 -9 8 -2 0 -6 -4
-9 -8z"/>
<path d="M1976 3902 c-3 -5 1 -9 9 -9 8 0 12 4 9 9 -3 4 -7 8 -9 8 -2 0 -6 -4
-9 -8z"/>
<path d="M1990 3760 c0 -5 5 -10 11 -10 5 0 7 5 4 10 -3 6 -8 10 -11 10 -2 0
-4 -4 -4 -10z"/>
<path d="M1995 3720 c3 -5 8 -10 11 -10 2 0 4 5 4 10 0 6 -5 10 -11 10 -5 0
-7 -4 -4 -10z"/>
<path d="M1976 3678 c3 -4 11 -5 19 -1 21 7 19 12 -4 10 -11 0 -18 -5 -15 -9z"/>
<path d="M1970 3656 c0 -2 8 -10 18 -17 15 -13 16 -12 3 4 -13 16 -21 21 -21
13z"/>
<path d="M1990 3600 c0 -5 5 -10 11 -10 5 0 7 5 4 10 -3 6 -8 10 -11 10 -2 0
-4 -4 -4 -10z"/>
<path d="M1995 3560 c3 -5 8 -10 11 -10 2 0 4 5 4 10 0 6 -5 10 -11 10 -5 0
-7 -4 -4 -10z"/>
<path d="M1976 3518 c3 -4 11 -5 19 -1 21 7 19 12 -4 10 -11 0 -18 -5 -15 -9z"/>
<path d="M1970 3496 c0 -2 8 -10 18 -17 15 -13 16 -12 3 4 -13 16 -21 21 -21
13z"/>
<path d="M1990 3440 c0 -5 5 -10 11 -10 5 0 7 5 4 10 -3 6 -8 10 -11 10 -2 0
-4 -4 -4 -10z"/>
<path d="M1995 3400 c3 -5 8 -10 11 -10 2 0 4 5 4 10 0 6 -5 10 -11 10 -5 0
-7 -4 -4 -10z"/>
<path d="M1976 3358 c3 -4 11 -5 19 -1 21 7 19 12 -4 10 -11 0 -18 -5 -15 -9z"/>
<path d="M1970 3336 c0 -2 8 -10 18 -17 15 -13 16 -12 3 4 -13 16 -21 21 -21
13z"/>
<path d="M1990 3280 c0 -5 5 -10 11 -10 5 0 7 5 4 10 -3 6 -8 10 -11 10 -2 0
-4 -4 -4 -10z"/>
<path d="M1995 3240 c3 -5 8 -10 11 -10 2 0 4 5 4 10 0 6 -5 10 -11 10 -5 0
-7 -4 -4 -10z"/>
<path d="M1976 3198 c3 -4 11 -5 19 -1 21 7 19 12 -4 10 -11 0 -18 -5 -15 -9z"/>
<path d="M1970 3176 c0 -2 8 -10 18 -17 15 -13 16 -12 3 4 -13 16 -21 21 -21
13z"/>
<path d="M1976 2942 c-3 -5 1 -9 9 -9 8 0 12 4 9 9 -3 4 -7 8 -9 8 -2 0 -6 -4
-9 -8z"/>
<path d="M1976 2758 c3 -4 11 -5 19 -1 21 7 19 12 -4 10 -11 0 -18 -5 -15 -9z"/>
<path d="M1976 2727 c3 -10 9 -15 12 -12 3 3 0 11 -7 18 -10 9 -11 8 -5 -6z"/>
<path d="M1996 2682 c-3 -5 1 -9 9 -9 8 0 12 4 9 9 -3 4 -7 8 -9 8 -2 0 -6 -4
-9 -8z"/>
<path d="M1976 2462 c-3 -5 1 -9 9 -9 8 0 12 4 9 9 -3 4 -7 8 -9 8 -2 0 -6 -4
-9 -8z"/>
<path d="M1976 2278 c3 -4 11 -5 19 -1 21 7 19 12 -4 10 -11 0 -18 -5 -15 -9z"/>
<path d="M1976 2247 c3 -10 9 -15 12 -12 3 3 0 11 -7 18 -10 9 -11 8 -5 -6z"/>
<path d="M1996 2202 c-3 -5 1 -9 9 -9 8 0 12 4 9 9 -3 4 -7 8 -9 8 -2 0 -6 -4
-9 -8z"/>
<path d="M1976 1982 c-3 -5 1 -9 9 -9 8 0 12 4 9 9 -3 4 -7 8 -9 8 -2 0 -6 -4
-9 -8z"/>
<path d="M5646 1951 c-4 -5 -3 -16 0 -25 3 -9 1 -16 -5 -16 -6 0 -11 -5 -11
-11 0 -6 5 -7 13 -2 6 4 17 8 22 9 6 0 17 2 25 3 12 1 11 4 -3 12 -15 9 -16
13 -5 27 8 11 5 10 -11 -3 -21 -17 -24 -18 -18 -2 7 18 2 23 -7 8z"/>
<path d="M5716 1913 c-6 -14 -5 -15 5 -6 7 7 10 15 7 18 -3 3 -9 -2 -12 -12z"/>
<path d="M1976 1767 c3 -10 9 -15 12 -12 3 3 0 11 -7 18 -10 9 -11 8 -5 -6z"/>
<path d="M1996 1722 c-3 -5 1 -9 9 -9 8 0 12 4 9 9 -3 4 -7 8 -9 8 -2 0 -6 -4
-9 -8z"/>
<path d="M5862 1651 c-11 -7 -10 -9 3 -14 9 -4 14 -3 10 2 -3 5 1 12 7 14 7 3
9 6 3 6 -5 0 -16 -3 -23 -8z"/>
<path d="M5406 1526 c6 -15 4 -17 -6 -11 -9 6 -11 4 -5 -4 5 -9 10 -10 18 -2
8 8 7 14 -2 24 -10 10 -11 8 -5 -7z"/>
<path d="M1976 1502 c-3 -5 1 -9 9 -9 8 0 12 4 9 9 -3 4 -7 8 -9 8 -2 0 -6 -4
-9 -8z"/>
<path d="M5774 1388 c-12 -18 -13 -58 -2 -64 5 -3 8 -2 7 3 -4 23 3 25 15 3
13 -23 14 -22 12 20 -1 43 -17 62 -32 38z m22 -22 c1 -7 -4 -13 -11 -13 -7 0
-11 7 -10 16 2 9 4 18 4 20 2 8 15 -10 17 -23z"/>
<path d="M1986 1358 c3 -5 10 -6 15 -3 13 9 11 12 -6 12 -8 0 -12 -4 -9 -9z"/>
<path d="M1970 1343 c0 -1 9 -7 19 -12 14 -8 20 -7 24 2 3 7 -5 12 -19 12 -13
0 -24 -1 -24 -2z"/>
<path d="M1984 1302 c4 -3 14 -7 22 -8 9 -1 13 0 10 4 -4 3 -14 7 -22 8 -9 1
-13 0 -10 -4z"/>
<path d="M1988 1273 c7 -3 16 -2 19 1 4 3 -2 6 -13 5 -11 0 -14 -3 -6 -6z"/>
<path d="M5199 1185 c-1 -3 -2 -8 -3 -12 -1 -5 -5 -15 -10 -23 -7 -12 -6 -13
4 -3 13 12 23 43 14 43 -2 0 -5 -2 -5 -5z"/>
<path d="M2001 1104 c7 -8 6 -14 -1 -17 -6 -3 -6 -5 1 -3 17 3 20 33 3 33 -10
0 -11 -4 -3 -13z"/>
<path d="M2915 1050 c-4 -11 -11 -17 -17 -14 -5 4 -4 -4 2 -17 16 -30 25 -39
17 -17 -4 12 -2 15 8 11 8 -3 12 -10 8 -16 -4 -6 -1 -7 6 -2 9 5 10 10 2 18
-7 7 -7 14 1 24 8 11 7 12 -6 7 -12 -5 -15 -2 -10 10 3 9 4 16 1 16 -3 0 -9
-9 -12 -20z"/>
<path d="M4949 883 c-13 -16 -12 -17 4 -4 16 13 21 21 13 21 -2 0 -10 -8 -17
-17z"/>
<path d="M3116 827 c3 -10 9 -15 12 -12 3 3 0 11 -7 18 -10 9 -11 8 -5 -6z"/>
<path d="M3140 799 c0 -5 5 -7 10 -4 6 3 10 8 10 11 0 2 -4 4 -10 4 -5 0 -10
-5 -10 -11z"/>
<path d="M1833 785 c0 -8 4 -12 9 -9 4 3 8 9 8 15 0 5 -4 9 -8 9 -5 0 -9 -7
-9 -15z"/>
<path d="M4547 759 c7 -9 11 -18 8 -20 -2 -3 6 -11 18 -18 20 -13 21 -13 9 2
-8 9 -10 22 -6 29 4 7 4 10 -1 6 -4 -4 -15 -2 -24 5 -14 10 -14 10 -4 -4z"/>
<path d="M4596 753 c-4 -10 0 -23 10 -32 14 -13 15 -13 8 -1 -5 8 -7 23 -6 33
4 22 -4 22 -12 0z"/>
<path d="M4650 757 c0 -9 -5 -17 -11 -17 -5 0 -7 5 -3 12 4 7 3 8 -4 4 -14 -8
-15 -16 -4 -34 12 -18 39 -5 37 18 -2 25 -15 39 -15 17z"/>
<path d="M3360 756 c0 -2 7 -7 16 -10 8 -3 12 -2 9 4 -6 10 -25 14 -25 6z"/>
<path d="M4515 740 c3 -5 8 -10 11 -10 2 0 4 5 4 10 0 6 -5 10 -11 10 -5 0 -7
-4 -4 -10z"/>
<path d="M3395 731 c-3 -5 -2 -12 3 -15 5 -3 9 1 9 9 0 17 -3 19 -12 6z"/>
<path d="M1407 679 c7 -7 15 -10 18 -7 3 3 -2 9 -12 12 -14 6 -15 5 -6 -5z"/>
<path d="M1375 660 c-3 -5 -1 -10 4 -10 6 0 11 5 11 10 0 6 -2 10 -4 10 -3 0
-8 -4 -11 -10z"/>
<path d="M1430 659 c-12 -8 -10 -9 9 -4 17 5 22 4 16 -5 -5 -9 -4 -11 4 -6 6
4 9 12 6 17 -8 12 -16 11 -35 -2z"/>
</g>
</svg>
